<?xml version="1.0" standalone="no"?><!DOCTYPE svg PUBLIC "-//W3C//DTD SVG 1.1//EN" "http://www.w3.org/Graphics/SVG/1.1/DTD/svg11.dtd"><svg t="1767937631658" class="icon" viewBox="0 0 1024 1024" version="1.1" xmlns="http://www.w3.org/2000/svg" p-id="22795" xmlns:xlink="http://www.w3.org/1999/xlink" width="200" height="200"><path d="M285 538.5l213.6 110.1c6.5 3.7 6.5 3.7 14 3.7 6.5 0 10.3 0 14-3.7l213.6-110.1c20.5-10.3 20.5-38.2 0-48.5L526.6 380.9c-6.5-3.7-10.3-3.7-14-3.7s-6.5 0-14 3.7L285 490.9c-5.6 2.8-10.3 7.5-13.1 13.1-5.5 13 0.1 28.9 13.1 34.5z" fill="#F1A304" p-id="22796"></path><path d="M271 205.5c0.9 56.9 46.6 102.6 103.5 102.6h274.2c57.8 0 103.5-46.6 103.5-103.5 0-57.8-46.6-103.5-103.5-103.5H375.5C318.6 101 271 147.7 271 204.6v0.9z" fill="#05B1E8" p-id="22797"></path><path d="M649.7 720.4H375.5C317.7 720.4 272 767 272 823.9c0 57.8 46.6 103.5 103.5 103.5h274.2c57.8 0 103.5-46.6 103.5-103.5 0.1-56.9-46.6-103.5-103.5-103.5z" fill="#6FCC24" p-id="22798"></path><path d="M925.8 480.7H822.3c-20.5 0-34.5 14-34.5 34.5s14 34.5 34.5 34.5h69v241.6h-34.5v-28c0-6.5-6.5-10.3-17.7-3.7l-79.3 55c-3.7 3.7-6.5 6.5-6.5 10.3 0 3.7 3.7 6.5 6.5 10.3l79.3 55c10.3 6.5 17.7 3.7 17.7-10.3v-20.5h69c20.5 0 34.5-14 34.5-34.5V515.2c0.1-21.5-13.9-34.5-34.5-34.5zM62.7 205.2v309.7c0 20.5 14 34.5 34.5 34.5h69v20.5c0 14 7.5 16.8 17.7 10.3l79.3-55c2.8-3.7 6.5-6.5 6.5-10.3s-2.8-6.5-6.5-10.3l-79.3-55c-11.2-6.5-17.7-2.8-17.7 3.7v28h-34.5V239.7h69c20.5 0 34.5-14 34.5-34.5s-14-34.5-34.5-34.5H97.2c-20.5 0-34.5 13.1-34.5 34.5z" fill="#737184" p-id="22799"></path></svg>